HIERARCHY
ROOT joint_Root
{
	OFFSET 0.0 0.0 0.0
	CHANNELS 6 Xposition Yposition Zposition Zrotation Xrotation Yrotation 
	JOINT Hips
	{
		OFFSET -17.1583 93.1646 452.98
		CHANNELS 6 Xposition Yposition Zposition Zrotation Xrotation Yrotation 
		JOINT Spine
		{
			OFFSET 15.7357 0.0 0.0
			CHANNELS 6 Xposition Yposition Zposition Zrotation Xrotation Yrotation 
			JOINT Chest
			{
				OFFSET 8.98455 -0.406207 0.0
				CHANNELS 6 Xposition Yposition Zposition Zrotation Xrotation Yrotation 
				JOINT Neck
				{
					OFFSET 16.3773 0.0 0.0
					CHANNELS 6 Xposition Yposition Zposition Zrotation Xrotation Yrotation 
					JOINT Head
					{
						OFFSET 6.45672 0.0 0.0
						CHANNELS 6 Xposition Yposition Zposition Zrotation Xrotation Yrotation 
						End Site
						{
							OFFSET 0.0 0.0 0.0
						}
					}
				}
				JOINT Shoulder_L
				{
					OFFSET 12.9942 -0.242716 4.98039
					CHANNELS 6 Xposition Yposition Zposition Zrotation Xrotation Yrotation 
					JOINT UpperArm_L
					{
						OFFSET 5.34809 0.0 0.0
						CHANNELS 6 Xposition Yposition Zposition Zrotation Xrotation Yrotation 
						JOINT LowerArm_L
						{
							OFFSET 24.3286 1.87007e-05 0.0
							CHANNELS 6 Xposition Yposition Zposition Zrotation Xrotation Yrotation 
							JOINT Hand_L
							{
								OFFSET 22.2916 0.0 0.0
								CHANNELS 6 Xposition Yposition Zposition Zrotation Xrotation Yrotation 
								End Site
								{
									OFFSET 0.0 0.0 0.0
								}
							}
						}
					}
				}
				JOINT Shoulder_R
				{
					OFFSET 12.9945 -0.242716 -4.98039
					CHANNELS 6 Xposition Yposition Zposition Zrotation Xrotation Yrotation 
					JOINT UpperArm_R
					{
						OFFSET -5.34813 0.0 0.0
						CHANNELS 6 Xposition Yposition Zposition Zrotation Xrotation Yrotation 
						JOINT LowerArm_R
						{
							OFFSET -24.3289 0.000322201 0.0
							CHANNELS 6 Xposition Yposition Zposition Zrotation Xrotation Yrotation 
							JOINT Hand_R
							{
								OFFSET -22.2915 -0.000108084 0.0
								CHANNELS 6 Xposition Yposition Zposition Zrotation Xrotation Yrotation 
								End Site
								{
									OFFSET 0.0 0.0 0.0
								}
							}
						}
					}
				}
			}
		}
		JOINT UpperLeg_L
		{
			OFFSET -2.19248 -6.46944 0.0
			CHANNELS 6 Xposition Yposition Zposition Zrotation Xrotation Yrotation 
			JOINT LowerLeg_L
			{
				OFFSET 39.0811 0.0 -1.23785e-05
				CHANNELS 6 Xposition Yposition Zposition Zrotation Xrotation Yrotation 
				JOINT Foot_L
				{
					OFFSET 40.9854 0.0 -1.26872e-05
					CHANNELS 6 Xposition Yposition Zposition Zrotation Xrotation Yrotation 
					JOINT Toes_L
					{
						OFFSET 11.7543 0.0 0.0
						CHANNELS 6 Xposition Yposition Zposition Zrotation Xrotation Yrotation 
						End Site
						{
							OFFSET 0.0 0.0 0.0
						}
					}
				}
			}
		}
		JOINT UpperLeg_R
		{
			OFFSET -2.19251 6.46944 0.0
			CHANNELS 6 Xposition Yposition Zposition Zrotation Xrotation Yrotation 
			JOINT LowerLeg_R
			{
				OFFSET -39.0811 -0.00228153 -0.0401928
				CHANNELS 6 Xposition Yposition Zposition Zrotation Xrotation Yrotation 
				JOINT Foot_R
				{
					OFFSET -40.9854 0.0 0.0
					CHANNELS 6 Xposition Yposition Zposition Zrotation Xrotation Yrotation 
					JOINT Toes_R
					{
						OFFSET -11.7543 0.0 0.0
						CHANNELS 6 Xposition Yposition Zposition Zrotation Xrotation Yrotation 
						End Site
						{
							OFFSET 0.0 0.0 0.0
						}
					}
				}
			}
		}
	}
}
MOTION
Frames:	5
Frame Time:	0.0333333
0.000000 0.000000 0.000000 0.000000 0.000000 -0.000000 -0.445604 93.326400 -0.449470 88.698600 3.888230 0.756191 15.735700 0.000005 -0.000001 73.961000 87.679200 -67.991400 8.984550 -0.406207 -0.000000 -3.181270 -1.850990 11.891100 16.377300 -0.000001 -0.000001 -3.135650 -0.397324 9.871260 6.456720 -0.000001 -0.000000 0.410531 1.115190 22.006200 12.994200 -0.242716 4.980390 -87.305100 -5.693690 -64.618200 5.348090 -0.000007 -0.000001 -45.152900 -53.980700 -67.329900 24.328600 0.000019 0.000005 0.000883 8.672860 -0.000000 22.291600 -0.000001 0.000005 3.251780 3.287020 33.600300 12.994500 -0.242716 -4.980390 89.145500 2.782150 -72.919700 -5.348130 -0.000001 -0.000004 -66.645900 12.636200 -3.435530 -24.328900 0.000322 -0.000009 1.849950 6.405140 -16.155800 -22.291500 -0.000108 -0.000004 6.505290 5.216210 2.309640 -2.192480 -6.469440 -0.000000 -174.009000 -3.026430 -0.805798 39.081100 -0.000007 -0.000012 0.019717 -0.084131 13.190400 40.985400 -0.000006 -0.000013 -1.144230 14.065200 -67.665300 11.754300 -0.000000 0.000003 -0.000044 0.168369 -9.747820 -2.192510 6.469440 -0.000001 176.884000 8.193270 -178.018000 -39.081100 -0.002282 -0.040193 0.006392 -0.017111 10.119000 -40.985400 0.000008 0.000006 -6.777480 3.946460 -66.418000 -11.754300 -0.000006 -0.000006 -0.010773 0.276989 -5.318430
0.000000 0.000000 0.000000 0.000000 0.000000 -0.000000 -0.391718 93.295900 -0.345317 88.692400 3.416180 0.872159 15.735700 0.000005 -0.000001 77.527500 87.696100 -71.653600 8.984550 -0.406207 -0.000000 -3.160590 -1.553680 11.707900 16.377300 -0.000001 -0.000001 -2.960470 -0.141703 9.736540 6.456720 -0.000001 -0.000000 0.628536 1.339450 21.891500 12.994200 -0.242716 4.980390 -87.446300 -5.359760 -64.476800 5.348090 -0.000007 -0.000001 -48.318100 -55.362100 -68.362100 24.328600 0.000019 0.000005 -0.000022 1.532210 0.000000 22.291600 -0.000001 0.000005 9.381490 3.084800 36.072500 12.994500 -0.242716 -4.980390 89.165900 2.737150 -73.044300 -5.348130 -0.000001 -0.000004 -66.417000 12.810500 -2.684820 -24.328900 0.000322 -0.000009 1.885000 6.500050 -16.219100 -22.291500 -0.000108 -0.000004 6.240550 5.219380 2.228430 -2.192480 -6.469440 -0.000000 -174.052000 -3.100360 -0.633021 39.081100 -0.000007 -0.000012 0.019993 -0.083983 13.390900 40.985400 -0.000006 -0.000013 -1.104760 13.700500 -67.809200 11.754300 -0.000000 0.000003 -0.000096 0.169223 -9.713120 -2.192510 6.469440 -0.000001 176.856000 7.866770 -178.015000 -39.081100 -0.002282 -0.040193 0.007697 -0.023769 10.391100 -40.985400 0.000008 0.000006 -6.553720 4.087100 -66.628500 -11.754300 -0.000006 -0.000006 -0.010569 0.275508 -5.379060
0.000000 0.000000 0.000000 0.000000 0.000000 -0.000000 -0.339811 93.276800 -0.241182 88.690100 3.041210 0.880024 15.735700 0.000005 -0.000001 80.430200 87.761800 -74.655500 8.984550 -0.406207 -0.000000 -3.260550 -1.298440 11.515400 16.377300 -0.000001 -0.000001 -2.632470 0.158923 9.459390 6.456720 -0.000001 -0.000000 0.940122 1.561900 21.681300 12.994200 -0.242716 4.980390 -87.543700 -5.131290 -64.376000 5.348090 -0.000007 -0.000001 -50.559600 -56.867700 -70.391700 24.328600 0.000019 0.000005 0.000035 -1.789610 0.000000 22.291600 -0.000001 0.000005 15.960900 2.964650 37.499300 12.994500 -0.242716 -4.980390 89.197000 2.649990 -73.134700 -5.348130 -0.000001 -0.000004 -66.175700 12.817800 -2.006560 -24.328900 0.000322 -0.000009 1.973460 6.817570 -16.194400 -22.291500 -0.000108 -0.000004 5.867330 5.222880 2.138870 -2.192480 -6.469440 -0.000000 -174.100000 -3.186140 -0.531542 39.081100 -0.000007 -0.000012 0.020360 -0.084984 13.472800 40.985400 -0.000006 -0.000013 -1.073090 13.415300 -67.889100 11.754300 -0.000000 0.000003 0.000091 0.166072 -9.841100 -2.192510 6.469440 -0.000001 176.808000 7.731720 -178.027000 -39.081100 -0.002282 -0.040193 0.008349 -0.027066 10.488000 -40.985400 0.000008 0.000006 -6.434130 4.316270 -66.706300 -11.754300 -0.000006 -0.000006 -0.010574 0.275548 -5.377410
0.000000 0.000000 0.000000 0.000000 0.000000 -0.000000 -0.305956 93.273700 -0.155069 88.657400 2.830630 0.894451 15.735700 0.000005 -0.000001 82.083800 87.854600 -76.387700 8.984550 -0.406207 -0.000000 -3.433870 -1.146320 11.361400 16.377300 -0.000001 -0.000001 -2.146460 0.558524 8.844000 6.456720 -0.000001 -0.000000 1.351390 1.736020 21.564400 12.994200 -0.242716 4.980390 -87.549300 -5.073230 -64.173100 5.348090 -0.000007 -0.000001 -50.552800 -57.910000 -72.491100 24.328600 0.000019 0.000005 -0.000095 -4.966030 0.000001 22.291600 -0.000001 0.000005 22.115100 2.870020 38.621400 12.994500 -0.242716 -4.980390 89.241600 2.502140 -73.132200 -5.348130 -0.000001 -0.000004 -65.992800 12.542400 -1.437910 -24.328900 0.000322 -0.000009 2.032160 7.093240 -16.039600 -22.291500 -0.000108 -0.000004 5.977970 5.219730 2.219650 -2.192480 -6.469440 -0.000000 -174.097000 -3.172520 -0.394997 39.081100 -0.000007 -0.000012 0.022187 -0.092832 13.441900 40.985400 -0.000006 -0.000013 -1.065450 13.229300 -67.995700 11.754300 -0.000000 0.000003 -0.000015 0.167871 -9.768060 -2.192510 6.469440 -0.000001 176.767000 7.682210 -177.930000 -39.081100 -0.002282 -0.040193 0.007047 -0.020208 10.400400 -40.985400 0.000008 0.000006 -6.699770 4.540350 -66.657000 -11.754300 -0.000006 -0.000006 -0.010746 0.276799 -5.326210
0.000000 0.000000 0.000000 0.000000 0.000000 -0.000000 -0.272441 93.264500 -0.086144 88.611800 2.749890 0.888391 15.735700 0.000005 -0.000001 82.963200 87.958200 -77.334800 8.984550 -0.406207 -0.000000 -3.636480 -1.059040 11.227500 16.377300 -0.000001 -0.000001 -1.752690 0.977522 8.065510 6.456720 -0.000001 -0.000000 1.966250 1.985240 21.520400 12.994200 -0.242716 4.980390 -87.501300 -5.138460 -64.022700 5.348090 -0.000007 -0.000001 -50.915900 -59.181400 -76.105500 24.328600 0.000019 0.000005 -0.000233 -8.380490 0.000001 22.291600 -0.000001 0.000005 26.902300 2.993770 37.178300 12.994500 -0.242716 -4.980390 89.276900 2.388790 -73.152300 -5.348130 -0.000001 -0.000004 -65.822300 11.683900 -0.985281 -24.328900 0.000322 -0.000009 2.057560 7.340000 -15.714200 -22.291500 -0.000108 -0.000004 6.253280 5.215970 2.315740 -2.192480 -6.469440 -0.000000 -174.081000 -3.101520 -0.397784 39.081100 -0.000007 -0.000012 0.024275 -0.100848 13.534300 40.985400 -0.000006 -0.000013 -1.049160 13.070400 -68.040500 11.754300 -0.000000 0.000003 0.000001 0.167609 -9.778700 -2.192510 6.469440 -0.000001 176.767000 7.623460 -177.881000 -39.081100 -0.002282 -0.040193 0.006332 -0.016403 10.341900 -40.985400 0.000008 0.000006 -6.882630 4.600280 -66.549900 -11.754300 -0.000006 -0.000006 -0.010606 0.275776 -5.368100
